<?xml version="1.0" encoding="UTF-8" standalone="no"?>
<svg
        xmlns:dc="http://purl.org/dc/elements/1.1/"
        xmlns:cc="http://creativecommons.org/ns#"
        xmlns:rdf="http://www.w3.org/1999/02/22-rdf-syntax-ns#"
        xmlns:svg="http://www.w3.org/2000/svg"
        xmlns="http://www.w3.org/2000/svg"
        xmlns:sodipodi="http://sodipodi.sourceforge.net/DTD/sodipodi-0.dtd"
        xmlns:inkscape="http://www.inkscape.org/namespaces/inkscape"
        width="382.5"
        height="382.5"
        id="svg3790"
        version="1.1"
        inkscape:version="0.48.4 r9939"
        sodipodi:docname="Mozspace-London.svg">
    <metadata
            id="metadata4070">
        <rdf:RDF>
            <cc:Work
                    rdf:about="">
                <dc:format>image/svg+xml</dc:format>
                <dc:type
                        rdf:resource="http://purl.org/dc/dcmitype/StillImage"/>
                <dc:title></dc:title>
            </cc:Work>
        </rdf:RDF>
    </metadata>
    <sodipodi:namedview
            pagecolor="#ffffff"
            bordercolor="#666666"
            borderopacity="1"
            objecttolerance="10"
            gridtolerance="10"
            guidetolerance="10"
            inkscape:pageopacity="0"
            inkscape:pageshadow="2"
            inkscape:window-width="1119"
            inkscape:window-height="1896"
            id="namedview4068"
            showgrid="false"
            inkscape:zoom="1.7879425"
            inkscape:cx="215.8765"
            inkscape:cy="191.2535"
            inkscape:window-x="81"
            inkscape:window-y="24"
            inkscape:window-maximized="1"
            inkscape:current-layer="g3810"/>
    <defs
            id="defs3792">
        <clipPath
                id="a">
            <path
                    d="M0 306h306v-306h-306v306z"
                    id="path3795"/>
        </clipPath>
        <clipPath
                id="clipPath3797">
            <path
                    d="M147.595 306c-79.331-2.663-143.547-66.015-147.595-144.993v-15.84c4.136-80.696 71.09-145.079 152.798-145.079 84.365 0 153 68.636 153 152.999 0 82.624-65.829 150.162-147.796 152.913h-10.407z"
                    id="path3799"/>
        </clipPath>
        <clipPath
                id="b">
            <path
                    d="M-.202 306.087h306.001v-305.999h-306.001v305.999z"
                    id="path3802"/>
        </clipPath>
        <clipPath
                id="c">
            <path
                    d="M156.256 108.239h181.803v-118.016h-181.803v118.016z"
                    id="path3805"/>
        </clipPath>
        <clipPath
                id="d">
            <path
                    d="M0 306h306v-306h-306v306z"
                    id="path3808"/>
        </clipPath>
        <clipPath
                clipPathUnits="userSpaceOnUse"
                id="clipPath112">
            <path
                    inkscape:connector-curvature="0"
                    d="m 156.256,108.239 181.803,0 0,-118.01634 -181.803,0 0,118.01634 z"
                    id="path114"/>
        </clipPath>
    </defs>
    <g
            id="g3810">
        <path
                d="M190.999 382.39c-105.456 0-191.251-85.795-191.251-191.25s85.795-191.25 191.251-191.25c105.455 0 191.25 85.795 191.25 191.25s-85.795 191.25-191.25 191.25"
                fill="#fff"
                clip-path="url(#a)"
                id="path3812"/>
        <path
                style="fill:#ffffff"
                inkscape:connector-curvature="0"
                id="path3816"
                d="m 370.999,191.141 c 0,99.411 -80.59,180 -180,180 -99.411,0 -180.001,-80.589 -180.001,-180 0,-99.411 80.59,-180 180.001,-180 99.41,0 180,80.589 180,180"/>
        <path
                inkscape:connector-curvature="0"
                d="m 314.71313,219.5275 c -2.90625,4.1925 -7.0075,11.89 -14.91875,10.45 -6.3125,4.71875 -10.3625,1.57 -17.6925,5.6225 -8.0525,1.725 -23.08,-3.82125 -30.75625,-5.29125 -14.2025,-2.70375 -13.935,0.31875 -26.29375,6.61375 -18.37125,9.1575 -14.32125,31.1575 -21.49625,44.4825 0.0312,0.0763 -1.70375,-0.69375 -1.68125,-0.61375 0.5325,1.44 0.97875,2.9075 1.3575,4.39125 0.0125,0.0125 0.0125,0.0175 0.0125,0.0225 0.3125,1.2225 0.595,2.43875 0.845,3.6825 -20.97,2.3775 -41.9225,-0.68125 -61.14125,-10.0575 -14.7575,-7.19625 -24.61875,-18.1025 -34.97,-31.325 2.53625,-1.38375 -1.83,-1.2525 0.49625,-2.48 1.4975,-0.8 0.15625,-1.16875 1.46,-1.84375 l -2.6175,-0.14 c -4.81625,-1.09625 -0.7025,-1.36625 -4.465,-1.1575 4.265,-4.9425 7.615,-7.23875 8.0925,-7.62625 l 0.67125,-0.64125 c -5.54125,1.90375 -5.4475,1.09 -9.77125,5.25875 1.5125,-7.2875 -0.1325,-6.92 2.82625,-13.03125 -6.571254,3.4375 -9.755004,5.45625 -15.047504,6.61375 0.31625,-6.0675 4.9125,-7.14375 7.9375,-12.23625 2.1875,-3.67625 0.95125,-3.42125 2.480004,-7.11125 -6.612504,2.40875 -10.932504,3.355 -16.966255,7.295 2.856251,-9.3425 4.725001,-13.6425 11.675001,-20.85375 -6.71,0.55125 -12.083751,3.41875 -18.188751,6.77875 -0.0825,-0.46875 1.76375,-4.78125 1.205,-5.04875 4.685,-7.60125 9.700001,-10.83125 16.818751,-17.10875 -8.09625,0.6875 -14.630001,1.0525 -22.417501,3.715 7.70125,-7.0225 16.298751,-18.59625 24.897501,-27.69125 l -13.471251,0.435 c -3.595,0.435 -6.99375,2.8375 -10.175,2.37625 13.027501,-13.32375 45.170005,-40.91375 62.506255,-51.9225 0,0 25.975,-15.555001 50.27,-12.898751 10.90875,3.188751 17.23875,5.561251 28.44,7.937501 9.8775,-2.6875 22.175,-2.74375 31.3925,3.9625 6.12125,5.76 13.23125,12.56125 10.27875,21.66875 17.0325,16.04 53.05,21.7725 63.2975,35.8375 1.56375,2.27375 0.69375,18.0075 3.7675,27.2225 l -0.26,3.66125 c -3.27375,6.7575 -11.02875,24.7075 -8.3975,21.05125 M -6.26e-4,191.25 c 0,105.455 85.795002,191.25 191.251256,191.25 105.45625,0 191.25,-85.795 191.25,-191.25 C 382.50063,85.794999 296.70688,10e-7 191.25063,10e-7 85.794376,10e-7 -6.26e-4,85.794999 -6.26e-4,191.25 z"
                style="fill:#ececec;fill-opacity:1;fill-rule:nonzero;stroke:none"
                id="path50"
                sodipodi:nodetypes="cccccccccccccccccccccccccccccccccccccccccssscs"/>
        <path
                style="fill:none;stroke:#ccecf7;stroke-width:1.29999995;stroke-miterlimit:10;stroke-dasharray:4.159, 4.159"
                inkscape:connector-curvature="0"
                id="path3822"
                stroke-miterlimit="10"
                d="m 2.247,24.186 h 382.5"/>
        <path
                style="fill:none;stroke:#ccecf7;stroke-width:1.29999995;stroke-miterlimit:10;stroke-dasharray:4.159, 4.159"
                inkscape:connector-curvature="0"
                id="path3824"
                stroke-miterlimit="10"
                d="m 2.247,78.12 h 382.5"/>
        <path
                style="fill:none;stroke:#ccecf7;stroke-width:1.29999995;stroke-miterlimit:10;stroke-dasharray:4.159, 4.159"
                inkscape:connector-curvature="0"
                id="path3826"
                stroke-miterlimit="10"
                d="m 2.247,132.062 h 382.5"/>
        <path
                style="fill:none;stroke:#ccecf7;stroke-width:1.29999995;stroke-miterlimit:10;stroke-dasharray:4.159, 4.159"
                inkscape:connector-curvature="0"
                id="path3828"
                stroke-miterlimit="10"
                d="m 2.247,186.002 h 382.5"/>
        <path
                style="fill:none;stroke:#ccecf7;stroke-width:1.29999995;stroke-miterlimit:10;stroke-dasharray:4.159, 4.159"
                inkscape:connector-curvature="0"
                id="path3830"
                stroke-miterlimit="10"
                d="m 2.247,239.943 h 382.5"/>
        <path
                style="fill:none;stroke:#ccecf7;stroke-width:1.29999995;stroke-miterlimit:10;stroke-dasharray:4.159, 4.159"
                inkscape:connector-curvature="0"
                id="path3832"
                stroke-miterlimit="10"
                d="m 2.247,293.881 h 382.5"/>
        <g
                id="g110"
                transform="matrix(1.25,0,0,-1.25,-3.7500745e-4,382.4995)"/>
        <g
                id="g116"
                transform="matrix(1.25,0,0,-1.25,-3.7500745e-4,382.4995)">
            <g
                    id="g118"
                    clip-path="url(#clipPath112)"
                    style="opacity:0.89999402">
                <g
                        id="g120"
                        transform="translate(168.2027,-9.3852832)">
                    <path
                            id="path122"
                            style="fill:#cfedfb;fill-opacity:1;fill-rule:nonzero;stroke:none"
                            d="m 0,0 -11.836,10.549 30.073,36.574 c 0.469,0.563 1.133,2.303 1.156,3.045 l 0,40.633 c 0,5.494 3.507,11.377 8.34,13.99 l 16.321,9.305 c 3.448,1.863 8.794,3.218 12.713,3.218 l 112.513,0 0,-15.855 -112.513,0 c -1.313,0 -4.017,-0.686 -5.17,-1.309 l -16.1,-9.185 c -0.09,-0.11 -0.193,-0.285 -0.25,-0.416 l 0,-40.393 c 0,-4.576 -2.127,-10.162 -5.174,-13.582 L 0,0 z"
                            inkscape:connector-curvature="0"/>
                </g>
                <g
                        id="g124"
                        transform="translate(168.4902,-9.3633)">
                    <path
                            id="path126"
                            style="fill:none;stroke:#afd0ef;stroke-width:0.57499999;stroke-linecap:butt;stroke-linejoin:miter;stroke-miterlimit:10;stroke-opacity:1;stroke-dasharray:none"
                            d="m 0,0 -11.836,10.549 30.073,36.574 c 0.469,0.563 1.133,2.303 1.156,3.045 l 0,40.633 c 0,5.494 3.507,11.377 8.34,13.99 l 16.321,9.305 c 3.448,1.863 8.794,3.218 12.713,3.218 l 112.513,0 0,-15.855 -112.513,0 c -1.313,0 -4.017,-0.686 -5.17,-1.309 l -16.1,-9.185 c -0.09,-0.11 -0.193,-0.285 -0.25,-0.416 l 0,-40.393 c 0,-4.576 -2.127,-10.162 -5.174,-13.582 L 0,0 z"
                            inkscape:connector-curvature="0"/>
                </g>
            </g>
        </g>
        <path
                style="fill:none;stroke:#ccecf7;stroke-width:1.29999995;stroke-miterlimit:10;stroke-dasharray:4.159, 4.159"
                inkscape:connector-curvature="0"
                id="path3834"
                stroke-miterlimit="10"
                d="m 2.247,347.819 h 382.5"/>
        <path
                style="fill:none;stroke:#ccecf7;stroke-width:1.29999995;stroke-miterlimit:10;stroke-dasharray:4.159, 4.159"
                inkscape:connector-curvature="0"
                id="path3836"
                stroke-miterlimit="10"
                d="M 31.663,377.39 V -5.109"/>
        <path
                style="fill:none;stroke:#ccecf7;stroke-width:1.29999995;stroke-miterlimit:10;stroke-dasharray:4.159, 4.159"
                inkscape:connector-curvature="0"
                id="path3838"
                stroke-miterlimit="10"
                d="M 85.609,377.39 V -5.109"/>
        <path
                style="fill:none;stroke:#ccecf7;stroke-width:1.29999995;stroke-miterlimit:10;stroke-dasharray:4.159, 4.159"
                inkscape:connector-curvature="0"
                id="path3840"
                stroke-miterlimit="10"
                d="M 139.555,377.39 V -5.109"/>
        <path
                style="fill:none;stroke:#ccecf7;stroke-width:1.29999995;stroke-miterlimit:10;stroke-dasharray:4.159, 4.159"
                inkscape:connector-curvature="0"
                id="path3842"
                stroke-miterlimit="10"
                d="M 193.499,377.39 V -5.109"/>
        <path
                style="fill:none;stroke:#ccecf7;stroke-width:1.29999995;stroke-miterlimit:10;stroke-dasharray:4.159, 4.159"
                inkscape:connector-curvature="0"
                id="path3844"
                stroke-miterlimit="10"
                d="M 247.443,377.39 V -5.109"/>
        <path
                style="fill:none;stroke:#ccecf7;stroke-width:1.29999995;stroke-miterlimit:10;stroke-dasharray:4.159, 4.159"
                inkscape:connector-curvature="0"
                id="path3846"
                stroke-miterlimit="10"
                d="M 301.39,377.39 V -5.109"/>
        <path
                style="fill:none;stroke:#ccecf7;stroke-width:1.29999995;stroke-miterlimit:10;stroke-dasharray:4.159, 4.159"
                inkscape:connector-curvature="0"
                id="path3848"
                stroke-miterlimit="10"
                d="M 355.331,377.39 V -5.109"/>
        <g
                id="g3850">
            <g
                    id="g3852"
                    clip-path="url(#c)">
                <path
                        style="fill:#cfedfb"
                        inkscape:connector-curvature="0"
                        id="path3854"
                        d="M 210.613,394.204 195.818,381.018 233.409,335.3 c 0.586,-0.704 1.416,-2.879 1.445,-3.806 v -50.791 c 0,-6.867 4.384,-14.221 10.425,-17.488 l 20.401,-11.631 c 4.31,-2.329 10.992,-4.022 15.891,-4.022 h 140.641 v 19.819 H 281.571 c -1.641,0 -5.021,0.858 -6.463,1.636 l -20.125,11.481 c -0.112,0.138 -0.241,0.356 -0.313,0.52 v 50.491 c 0,5.72 -2.659,12.703 -6.468,16.977 l -37.591,45.718 z"/>
                <path
                        style="fill:none;stroke:#afd0ef;stroke-width:0.71875;stroke-miterlimit:10"
                        inkscape:connector-curvature="0"
                        id="path3856"
                        stroke-miterlimit="10"
                        d="M 210.613,394.204 195.818,381.018 233.409,335.3 c 0.586,-0.704 1.416,-2.879 1.445,-3.806 v -50.791 c 0,-6.867 4.384,-14.221 10.425,-17.488 l 20.401,-11.631 c 4.31,-2.329 10.992,-4.022 15.891,-4.022 h 140.641 v 19.819 H 281.571 c -1.641,0 -5.021,0.858 -6.463,1.636 l -20.125,11.481 c -0.112,0.138 -0.241,0.356 -0.313,0.52 v 50.491 c 0,5.72 -2.659,12.703 -6.468,16.977 l -37.591,45.718 z"/>
            </g>
        </g>
        <path
                style="fill:none;stroke:#e8a814;stroke-width:5;stroke-linejoin:round;stroke-miterlimit:10"
                inkscape:connector-curvature="0"
                id="path3858"
                stroke-miterlimit="10"
                d="m 291.632,149.214 3.744,1.507 c 2.059,0.829 5.949,2.387 8.645,3.465 2.697,1.076 6.991,3.836 9.543,6.131 2.551,2.296 4.918,5.982 5.258,8.193 0.34,2.21 0.722,6.07 0.85,8.579 0.126,2.507 0.821,7.091 1.542,10.184 0.721,3.093 1.105,6.78 0.851,8.194 -0.254,1.414 0.65,2.559 2.01,2.542 l 2.471,-0.027"/>
        <path
                style="fill:none;stroke:#e8a814;stroke-width:5;stroke-linejoin:round;stroke-miterlimit:10"
                inkscape:connector-curvature="0"
                id="path3860"
                stroke-miterlimit="10"
                d="m 291.632,149.214 -16.054,-6.464 c -5.74,-2.313 -6.856,-7.782 -2.482,-12.16 l 14.594,-14.6 c 4.374,-4.376 12.652,-7.957 18.396,-7.957 5.744,0 14.024,-3.58 18.399,-7.955 l 50.469,-50.464"/>
        <path
                style="fill:none;stroke:#a7a5a6;stroke-width:5;stroke-linejoin:round;stroke-miterlimit:10"
                inkscape:connector-curvature="0"
                id="path3862"
                stroke-miterlimit="10"
                d="M 88.829,416.797 V 272.932 c 0,-3.96 -2.291,-9.491 -5.091,-12.29 L 48.816,225.723 c -2.8,-2.8 -8.331,-5.091 -12.291,-5.091 H 19.244 c -3.96,0 -9.491,-2.291 -12.291,-5.09 l -42.22,-42.216"/>
        <path
                style="fill:none;stroke:#564ba9;stroke-width:5;stroke-linejoin:round;stroke-miterlimit:10"
                inkscape:connector-curvature="0"
                id="path3864"
                stroke-miterlimit="10"
                d="M 126.909,267.29 H 87.032 c -3.96,0 -9.476,2.306 -12.259,5.124 l -57.204,57.94"/>
        <path
                style="fill:none;stroke:#3c9446;stroke-width:5;stroke-linejoin:round;stroke-miterlimit:10"
                inkscape:connector-curvature="0"
                id="path3866"
                stroke-miterlimit="10"
                d="m 124.803,264.265 v 5.921 c 0,3.257 -2.291,8.217 -5.091,11.022 l -17.376,17.409 c -2.8,2.806 -5.091,8.344 -5.091,12.308 v 60.576 c 0,3.964 -2.292,9.5 -5.096,12.303 l -37.193,37.19"/>
        <path
                style="fill:none;stroke:#f68b9d;stroke-width:5;stroke-linejoin:round;stroke-miterlimit:10"
                inkscape:connector-curvature="0"
                id="path3868"
                stroke-miterlimit="10"
                d="M 142.825,23.852 78.74,86.253 c -2.837,2.763 -5.159,8.263 -5.159,12.223 v 0.065 c 0,3.96 -3.239,7.2 -7.199,7.2 h -7.896 c -3.96,0 -7.199,3.24 -7.199,7.2 v 155.614 c 0,3.96 -2.291,9.49 -5.092,12.29 l -49.084,49.079"/>
        <path
                style="fill:none;stroke:#e8a814;stroke-width:5;stroke-linejoin:round;stroke-miterlimit:10"
                inkscape:connector-curvature="0"
                id="path3870"
                stroke-miterlimit="10"
                d="M -31.201,23.932 10.84,65.949 c 2.804,2.801 8.34,5.094 12.305,5.094 h 44.069 c 3.965,0 9.492,-2.301 12.285,-5.114 L 113.03,32.15 c 2.792,-2.813 8.32,-5.115 12.284,-5.115 h 65.745 c 3.964,0 9.5,2.294 12.303,5.096 l 7.589,7.588 c 2.803,2.804 8.34,5.096 12.303,5.096 h 130.251"/>
        <path
                style="fill:none;stroke:#231f20;stroke-width:5;stroke-linejoin:round;stroke-miterlimit:10"
                inkscape:connector-curvature="0"
                id="path3872"
                stroke-miterlimit="10"
                d="m 320.225,200.896 -5.924,12.601 c -1.688,3.588 -3.066,9.766 -3.066,13.729 v 72.869 c 0,3.964 -2.223,9.57 -4.939,12.456 l -20.772,22.082 c -2.716,2.888 -4.938,8.492 -4.938,12.456 v 47.942"/>
        <path
                style="fill:none;stroke:#3c9446;stroke-width:5;stroke-linejoin:round;stroke-miterlimit:10"
                inkscape:connector-curvature="0"
                id="path3874"
                stroke-miterlimit="10"
                d="m 145.822,278.843 c 18.197,8.875 37.76,9.519 57.886,9.519"/>
        <path
                style="fill:none;stroke:#3c9446;stroke-width:5;stroke-linejoin:round;stroke-miterlimit:10"
                inkscape:connector-curvature="0"
                id="path3876"
                stroke-miterlimit="10"
                d="m 124.932,265.171 c 6.381,5.412 13.376,10.008 20.89,13.673"/>
        <path
                style="fill:none;stroke:#a7a5a6;stroke-width:5;stroke-linejoin:round;stroke-miterlimit:10"
                inkscape:connector-curvature="0"
                id="path3878"
                stroke-miterlimit="10"
                d="m 124.275,118.143 c -15.408,11.85 -47.358,41.682 -47.358,41.682 -2.894,2.702 -4.371,4.834 -3.282,4.737 1.089,-0.098 8.531,-1.396 12.39,-2.285 l 7.961,-1.835 c 3.859,-0.889 4.495,0.419 1.414,2.908 l -22.321,23.659 c -2.69,2.905 -1.96,3.901 1.623,2.218 l 13.328,-4.215 c 3.721,-1.355 4.442,-0.206 1.603,2.554 l -11.209,13.036 c -2.516,3.059 -4.535,5.761 -4.486,6.005 0.05,0.244 3.098,-0.505 6.667,-2.219 l 10.554,-5.749 c 3.561,-1.732 4.459,-0.613 1.994,2.486 L 81.575,217.31 c -2.167,3.315 -1.006,4.65 2.579,2.968 l 13.306,-6.339 c 3.694,-1.426 4.856,0.059 2.582,3.301 0,0 -1.065,1.52 -3.635,3.974 -4.111,3.92 -5.804,7.603 -5.804,7.603 -1.656,3.598 -0.215,4.9 3.2,2.896 l 7.926,-5.373 c 3.609,-1.631 4.176,-0.772 1.262,1.907 l -2.512,7.04 c -2.584,3.001 -2.07,4.034 1.14,2.295 3.21,-1.737 10.902,-4.963 10.732,-4.79 -0.17,0.174 -1.724,1.391 -3.453,2.705 -1.729,1.315 -6.875,7.088 -6.629,6.902 0.247,-0.186 5.585,0.639 6.268,0.661 0.683,0.022 0.665,0.36 -0.037,0.754 -0.704,0.393 -2.104,1.383 -1.406,1.219 0.698,-0.164 1.07,3.493 3.723,6.434 0,0 6.476,7.18 13.012,12.252"/>
        <path
                style="fill:none;stroke:#ed1e24;stroke-width:5;stroke-linejoin:round;stroke-miterlimit:10"
                inkscape:connector-curvature="0"
                id="path3880"
                stroke-miterlimit="10"
                d="m -23.401,259.385 55.695,-55.856 c 2.799,-2.808 5.076,-8.346 5.06,-12.31 l -0.14,-34.628 c -0.016,-3.964 2.27,-9.495 5.08,-12.29 l 66.035,-65.698 c 2.809,-2.796 8.351,-5.084 12.315,-5.084 h 80.384 c 3.964,0 9.451,2.34 12.196,5.201 l 5.221,5.441 c 2.744,2.86 8.232,5.2 12.195,5.2 h 75.754 c 3.964,0 9.51,-2.283 12.325,-5.072 l 41.45,-41.086"/>
        <path
                style="fill:none;stroke:#f68b9d;stroke-width:5;stroke-linejoin:round;stroke-miterlimit:10"
                inkscape:connector-curvature="0"
                id="path3882"
                stroke-miterlimit="10"
                d="m 179.309,77.127 2.86,-2.909 c 1.573,-1.6 2.836,-4.505 2.806,-6.455 -0.029,-1.95 2.248,-5.833 5.059,-8.626 L 212.67,36.646 c 2.811,-2.794 8.356,-5.08 12.32,-5.08 h 103.095 c 3.964,0 9.511,-2.283 12.326,-5.072 L 360.626,6.455"/>
        <path
                style="fill:none;stroke:#3c9446;stroke-width:5;stroke-linejoin:round;stroke-miterlimit:10"
                inkscape:connector-curvature="0"
                id="path3884"
                stroke-miterlimit="10"
                d="m 204.507,281.863 c 6.794,-12.613 4.541,-36.314 19.726,-44.77 11.475,-6.388 13.035,-9.246 26.485,-6.69 7.264,1.394 23.44,5.402 23.44,5.402 3.846,0.954 9.343,-0.503 12.212,-3.237 l 6.67,-4.365 c 2.655,-2.942 4.826,-2.107 4.826,1.856 v 59.739 c 0,3.964 2.891,8.676 6.425,10.473 l 55.316,28.116"/>
        <path
                style="fill:none;stroke:#7ab7e7;stroke-width:5;stroke-linejoin:round;stroke-miterlimit:10"
                inkscape:connector-curvature="0"
                id="path3886"
                stroke-miterlimit="10"
                d="m -1.741,136.133 h 73.743 c 3.96,0 9.488,-2.295 12.283,-5.099 l 20.765,-20.83 c 2.795,-2.804 7.376,-2.81 10.179,-0.013 l 3.772,3.765 c 2.803,2.797 7.071,3.66 9.484,1.916 2.413,-1.744 10.819,-7.432 14.06,-9.71 l 32.959,-7.301 c 3.799,-1.119 9.988,-1.034 13.754,0.19 l 17.035,4.631 c 3.81,1.079 7.654,1.883 8.54,1.786 0.887,-0.095 4.819,-0.647 8.736,-1.228 l 16.442,2.315 c 3.825,1.026 8.821,4.513 11.102,7.75 l 4.616,14.125 c 0.791,3.88 3.245,8.206 5.454,9.614 l 7.236,1.596 0.169,-18.579 c 0.036,-3.96 2.38,-9.467 5.209,-12.239 l 12.192,-11.941 c 2.828,-2.771 5.143,-8.279 5.143,-12.239 V 2.811"/>
        <path
                style="fill:none;stroke:#7ab7e7;stroke-width:5;stroke-linejoin:round;stroke-miterlimit:10"
                inkscape:connector-curvature="0"
                id="path3888"
                stroke-miterlimit="10"
                d="m 333.192,145.541 v -10.369 c 0,-3.964 2.305,-9.489 5.121,-12.279 l 49.106,-48.639"/>
        <path
                style="fill:none;stroke:#f14624;stroke-width:5;stroke-linejoin:round;stroke-miterlimit:10"
                inkscape:connector-curvature="0"
                id="path3890"
                stroke-miterlimit="10"
                d="m 94.795,182.548 c -6.609,6.188 -16.373,18.054 -16.373,18.054 -2.516,3.059 -4.535,5.761 -4.486,6.005 0.05,0.244 3.098,-0.505 6.667,-2.219 l 10.554,-5.749 c 3.561,-1.732 4.459,-0.613 1.994,2.486 l -11.578,16.186 c -2.167,3.314 -1.006,4.649 2.579,2.968 l 13.306,-6.34 c 3.694,-1.426 4.856,0.059 2.582,3.301 0,0 -1.065,1.52 -3.635,3.974 -4.111,3.92 -5.804,7.603 -5.804,7.603 -1.656,3.598 -0.215,4.901 3.2,2.896 l 7.926,-5.373 c 3.609,-1.631 4.176,-0.772 1.262,1.909 l -2.512,7.039 c -2.584,3.001 -2.07,4.034 1.14,2.295 3.21,-1.737 10.902,-4.963 10.732,-4.79 -0.17,0.174 -1.724,1.391 -3.453,2.705 -1.729,1.315 -6.875,7.088 -6.629,6.902 0.247,-0.186 5.585,0.64 6.268,0.661 0.683,0.022 0.665,0.36 -0.037,0.754 -0.704,0.393 -2.104,1.383 -1.406,1.219 0.698,-0.164 1.07,3.493 3.723,6.434 0,0 6.476,7.18 13.012,12.252"/>
        <path
                style="fill:none;stroke:#f68b9d;stroke-width:5;stroke-linejoin:round;stroke-miterlimit:10"
                inkscape:connector-curvature="0"
                id="path3892"
                stroke-miterlimit="10"
                d="m 46.511,404.38 h 214.125 c 6.188,0 14.603,-3.792 18.7,-8.429 l 21.105,-23.878 c 4.096,-4.636 12.511,-8.429 18.7,-8.429 h 52.035"/>
        <path
                style="fill:none;stroke:#e8a814;stroke-width:5;stroke-linejoin:round;stroke-miterlimit:10"
                inkscape:connector-curvature="0"
                id="path3894"
                stroke-miterlimit="10"
                d="M 414.135,191.792 H 328.387"/>
        <path
                style="fill:none;stroke:#f68b9d;stroke-width:5;stroke-linejoin:round;stroke-miterlimit:10"
                inkscape:connector-curvature="0"
                id="path3896"
                stroke-miterlimit="10"
                d="m 427.764,229.282 h -66.941 c -3.96,0 -9.491,-2.291 -12.291,-5.09 l -30.643,-30.64"/>
        <path
                style="fill:none;stroke:#f14624;stroke-width:5;stroke-linejoin:round;stroke-miterlimit:10"
                inkscape:connector-curvature="0"
                id="path3898"
                stroke-miterlimit="10"
                d="m 77.972,373.862 v -55.44 c 0,-3.96 2.291,-9.49 5.091,-12.291 l 38.765,-38.76"/>
        <path
                style="fill:none;stroke:#855333;stroke-width:5;stroke-linejoin:round;stroke-miterlimit:10"
                inkscape:connector-curvature="0"
                id="path3900"
                stroke-miterlimit="10"
                d="M 467.02,118.131 H 323.14 c -3.959,0 -9.49,-2.291 -12.291,-5.091 L 264.297,66.491 c -2.8,-2.8 -5.091,-8.331 -5.091,-12.291 V 40.21 c 0,-3.96 -2.291,-9.491 -5.091,-12.291 l -39.641,-39.64"/>
        <path
                style="fill:none;stroke:#a7a5a6;stroke-width:5;stroke-linejoin:round;stroke-miterlimit:10"
                inkscape:connector-curvature="0"
                id="path3902"
                stroke-miterlimit="10"
                d="m 181.47,-38.501 -18.085,18.084 c -2.8,2.8 -5.091,8.33 -5.091,12.29 v 53.025 c 0,3.96 2.291,9.491 5.091,12.29 l 14.985,14.984"/>
        <path
                style="fill:none;stroke:#7ab7e7;stroke-width:5;stroke-linejoin:round;stroke-miterlimit:10"
                inkscape:connector-curvature="0"
                id="path3904"
                stroke-miterlimit="10"
                d="m 334.351,150.024 24.633,24.63 c 2.8,2.8 8.331,5.091 12.291,5.091 h 53.032 c 3.96,0 9.491,-2.291 12.291,-5.091 l 14.984,-14.985"/>
        <path
                style="fill:none;stroke:#e8a814;stroke-width:5;stroke-linejoin:round;stroke-miterlimit:10"
                inkscape:connector-curvature="0"
                id="path3906"
                stroke-miterlimit="10"
                d="M 455.793,129.598 354.057,231.326 c -2.8,2.799 -5.091,8.33 -5.091,12.29 v 53.025 c 0,3.96 2.291,9.491 5.091,12.29 l 14.986,14.983"/>
        <path
                style="fill:none;stroke:#f14624;stroke-width:5;stroke-linejoin:round;stroke-miterlimit:10"
                inkscape:connector-curvature="0"
                id="path3908"
                stroke-miterlimit="10"
                d="m 96.604,338.95 h 70.471 c 3.96,0 7.202,3.24 7.206,7.2 l 0.045,55.725"/>
        <path
                style="fill:none;stroke:#a7a5a6;stroke-width:5;stroke-linejoin:round;stroke-miterlimit:10"
                inkscape:connector-curvature="0"
                id="path3910"
                stroke-miterlimit="10"
                d="m 313.667,307.349 h -26.639 c -3.96,0 -7.202,3.24 -7.207,7.2 l -0.005,4.111 c -0.005,3.96 -2.3,9.491 -5.1,12.29 l -9.034,9.03 c -2.8,2.8 -8.331,5.091 -12.291,5.091 H 203.98 c -3.96,0 -9.245,2.512 -11.745,5.584 l -36.785,45.183"/>
        <path
                style="fill:#ffffff"
                inkscape:connector-curvature="0"
                id="path3912"
                d="m 97.232,186.186 c 0,3.748 -3.04,6.79 -6.79,6.79 -3.75,0 -6.787,-3.043 -6.787,-6.79 0,-3.75 3.038,-6.79 6.787,-6.79 3.75,0 6.79,3.04 6.79,6.79"/>
        <path
                style="fill:none;stroke:#110f0d;stroke-width:2.5;stroke-miterlimit:10"
                inkscape:connector-curvature="0"
                id="path3914"
                stroke-miterlimit="10"
                d="m 97.232,186.186 c 0,3.748 -3.04,6.79 -6.79,6.79 -3.75,0 -6.787,-3.043 -6.787,-6.79 0,-3.75 3.038,-6.79 6.787,-6.79 3.75,0 6.79,3.04 6.79,6.79 z"/>
        <path
                style="fill:#ffffff"
                inkscape:connector-curvature="0"
                id="path3916"
                d="m 57.913,135.801 c 0,3.748 -3.041,6.787 -6.79,6.787 -3.75,0 -6.789,-3.04 -6.789,-6.787 0,-3.75 3.039,-6.789 6.789,-6.789 3.749,0 6.79,3.039 6.79,6.789"/>
        <path
                style="fill:none;stroke:#110f0d;stroke-width:2.5;stroke-miterlimit:10"
                inkscape:connector-curvature="0"
                id="path3918"
                stroke-miterlimit="10"
                d="m 57.913,135.801 c 0,3.748 -3.041,6.787 -6.79,6.787 -3.75,0 -6.789,-3.04 -6.789,-6.787 0,-3.75 3.039,-6.789 6.789,-6.789 3.749,0 6.79,3.039 6.79,6.789 z"/>
        <path
                style="fill:#ffffff"
                inkscape:connector-curvature="0"
                id="path3920"
                d="m 216.697,39.45 c 0,3.748 -3.04,6.787 -6.79,6.787 -3.75,0 -6.789,-3.04 -6.789,-6.787 0,-3.75 3.039,-6.789 6.789,-6.789 3.75,0 6.79,3.039 6.79,6.789"/>
        <path
                style="fill:none;stroke:#110f0d;stroke-width:2.5;stroke-miterlimit:10"
                inkscape:connector-curvature="0"
                id="path3922"
                stroke-miterlimit="10"
                d="m 216.697,39.45 c 0,3.748 -3.04,6.787 -6.79,6.787 -3.75,0 -6.789,-3.04 -6.789,-6.787 0,-3.75 3.039,-6.789 6.789,-6.789 3.75,0 6.79,3.039 6.79,6.789 z"/>
        <path
                style="fill:#ffffff"
                inkscape:connector-curvature="0"
                id="path3924"
                d="m 20.387,219.749 c 0,3.748 -3.041,6.79 -6.79,6.79 -3.749,0 -6.787,-3.043 -6.787,-6.79 0,-3.75 3.039,-6.79 6.787,-6.79 3.749,0 6.79,3.04 6.79,6.79"/>
        <path
                style="fill:none;stroke:#110f0d;stroke-width:2.5;stroke-miterlimit:10"
                inkscape:connector-curvature="0"
                id="path3926"
                stroke-miterlimit="10"
                d="m 20.387,219.749 c 0,3.748 -3.041,6.79 -6.79,6.79 -3.749,0 -6.787,-3.043 -6.787,-6.79 0,-3.75 3.039,-6.79 6.787,-6.79 3.749,0 6.79,3.04 6.79,6.79 z"/>
        <path
                style="fill:#ffffff"
                inkscape:connector-curvature="0"
                id="path3928"
                d="m 131.21,266.86 c 0,3.75 -3.04,6.79 -6.79,6.79 -3.749,0 -6.789,-3.04 -6.789,-6.79 0,-3.75 3.04,-6.79 6.789,-6.79 3.75,0 6.79,3.04 6.79,6.79"/>
        <path
                style="fill:none;stroke:#110f0d;stroke-width:2.5;stroke-miterlimit:10"
                inkscape:connector-curvature="0"
                id="path3930"
                stroke-miterlimit="10"
                d="m 131.21,266.86 c 0,3.75 -3.04,6.79 -6.79,6.79 -3.749,0 -6.789,-3.04 -6.789,-6.79 0,-3.75 3.04,-6.79 6.789,-6.79 3.75,0 6.79,3.04 6.79,6.79 z"/>
        <path
                style="fill:#ffffff"
                inkscape:connector-curvature="0"
                id="path3932"
                d="m 147.94,25.808 c 0,3.748 -3.04,6.789 -6.79,6.789 -3.75,0 -6.789,-3.041 -6.789,-6.789 0,-3.752 3.039,-6.789 6.789,-6.789 3.75,0 6.79,3.036 6.79,6.789"/>
        <path
                style="fill:none;stroke:#110f0d;stroke-width:2.5;stroke-miterlimit:10"
                inkscape:connector-curvature="0"
                id="path3934"
                stroke-miterlimit="10"
                d="m 147.94,25.808 c 0,3.748 -3.04,6.789 -6.79,6.789 -3.75,0 -6.789,-3.041 -6.789,-6.789 0,-3.752 3.039,-6.789 6.789,-6.789 3.75,0 6.79,3.036 6.79,6.789 z"/>
        <path
                style="fill:#ffffff"
                inkscape:connector-curvature="0"
                id="path3936"
                d="m 319.155,305.015 c 0,3.75 -3.041,6.787 -6.79,6.787 -3.75,0 -6.79,-3.038 -6.79,-6.787 0,-3.75 3.04,-6.79 6.79,-6.79 3.749,0 6.79,3.04 6.79,6.79"/>
        <path
                style="fill:none;stroke:#110f0d;stroke-width:2.5;stroke-miterlimit:10"
                inkscape:connector-curvature="0"
                id="path3938"
                stroke-miterlimit="10"
                d="m 319.155,305.015 c 0,3.75 -3.041,6.787 -6.79,6.787 -3.75,0 -6.79,-3.038 -6.79,-6.787 0,-3.75 3.04,-6.79 6.79,-6.79 3.749,0 6.79,3.04 6.79,6.79 z"/>
        <path
                style="fill:#ffffff"
                inkscape:connector-curvature="0"
                id="path3940"
                d="m 208.25,286.277 c 0,3.748 -3.04,6.787 -6.789,6.787 -3.75,0 -6.79,-3.04 -6.79,-6.787 0,-3.752 3.04,-6.79 6.79,-6.79 3.749,0 6.789,3.038 6.789,6.79"/>
        <path
                style="fill:none;stroke:#110f0d;stroke-width:2.5;stroke-miterlimit:10"
                inkscape:connector-curvature="0"
                id="path3942"
                stroke-miterlimit="10"
                d="m 208.25,286.277 c 0,3.748 -3.04,6.787 -6.789,6.787 -3.75,0 -6.79,-3.04 -6.79,-6.787 0,-3.752 3.04,-6.79 6.79,-6.79 3.749,0 6.789,3.038 6.789,6.79 z"/>
        <path
                style="fill:#ffffff"
                inkscape:connector-curvature="0"
                id="path3944"
                d="m 183.164,367.988 c 0,3.75 -3.039,6.793 -6.787,6.793 -3.751,0 -6.789,-3.043 -6.789,-6.793 0,-3.748 3.038,-6.787 6.789,-6.787 3.749,0 6.788,3.04 6.788,6.787"/>
        <path
                style="fill:none;stroke:#110f0d;stroke-width:2.5;stroke-miterlimit:10"
                inkscape:connector-curvature="0"
                id="path3946"
                stroke-miterlimit="10"
                d="m 183.164,367.988 c 0,3.75 -3.039,6.793 -6.787,6.793 -3.751,0 -6.789,-3.043 -6.789,-6.793 0,-3.748 3.038,-6.787 6.789,-6.787 3.749,0 6.788,3.04 6.788,6.787 z"/>
        <path
                style="fill:#ffffff"
                inkscape:connector-curvature="0"
                id="path3948"
                d="m 328.436,193.831 c 0,3.75 -3.041,6.79 -6.791,6.79 -3.749,0 -6.787,-3.04 -6.787,-6.79 0,-3.752 3.039,-6.79 6.787,-6.79 3.75,0 6.791,3.038 6.791,6.79"/>
        <path
                style="fill:none;stroke:#110f0d;stroke-width:2.5;stroke-miterlimit:10"
                inkscape:connector-curvature="0"
                id="path3950"
                stroke-miterlimit="10"
                d="m 328.436,193.831 c 0,3.75 -3.041,6.79 -6.791,6.79 -3.749,0 -6.787,-3.04 -6.787,-6.79 0,-3.752 3.039,-6.79 6.787,-6.79 3.75,0 6.791,3.038 6.791,6.79 z"/>
        <path
                style="fill:#ffffff"
                inkscape:connector-curvature="0"
                id="path3952"
                d="m 297.685,90.662 c 0,3.749 -3.041,6.79 -6.79,6.79 -3.75,0 -6.79,-3.041 -6.79,-6.79 0,-3.75 3.04,-6.787 6.79,-6.787 3.749,0 6.79,3.037 6.79,6.787"/>
        <path
                style="fill:none;stroke:#110f0d;stroke-width:2.5;stroke-miterlimit:10"
                inkscape:connector-curvature="0"
                id="path3954"
                stroke-miterlimit="10"
                d="m 297.685,90.662 c 0,3.749 -3.041,6.79 -6.79,6.79 -3.75,0 -6.79,-3.041 -6.79,-6.79 0,-3.75 3.04,-6.787 6.79,-6.787 3.749,0 6.79,3.037 6.79,6.787 z"/>
        <path
                style="fill:#ffffff"
                inkscape:connector-curvature="0"
                id="path3956"
                d="m 187.019,72.786 c 0,3.749 -3.043,6.789 -6.79,6.789 -3.75,0 -6.789,-3.04 -6.789,-6.789 0,-3.751 3.039,-6.789 6.789,-6.789 3.747,0 6.79,3.038 6.79,6.789"/>
        <path
                style="fill:none;stroke:#110f0d;stroke-width:2.5;stroke-miterlimit:10"
                inkscape:connector-curvature="0"
                id="path3958"
                stroke-miterlimit="10"
                d="m 187.019,72.786 c 0,3.749 -3.043,6.789 -6.79,6.789 -3.75,0 -6.789,-3.04 -6.789,-6.789 0,-3.751 3.039,-6.789 6.789,-6.789 3.747,0 6.79,3.038 6.79,6.789 z"/>
        <path
                style="fill:#ffffff"
                inkscape:connector-curvature="0"
                id="path3960"
                d="m 297.423,44.404 c 0,3.748 -3.041,6.789 -6.79,6.789 -3.75,0 -6.789,-3.041 -6.789,-6.789 0,-3.751 3.039,-6.789 6.789,-6.789 3.749,0 6.79,3.038 6.79,6.789"/>
        <path
                style="fill:none;stroke:#110f0d;stroke-width:2.5;stroke-miterlimit:10"
                inkscape:connector-curvature="0"
                id="path3962"
                stroke-miterlimit="10"
                d="m 297.423,44.404 c 0,3.748 -3.041,6.789 -6.79,6.789 -3.75,0 -6.789,-3.041 -6.789,-6.789 0,-3.751 3.039,-6.789 6.789,-6.789 3.749,0 6.79,3.038 6.79,6.789 z"/>
        <path
                style="fill:#ffffff"
                inkscape:connector-curvature="0"
                id="path3964"
                d="m 276.727,138.171 c 0,3.75 -3.04,6.789 -6.79,6.789 -3.75,0 -6.789,-3.039 -6.789,-6.789 0,-3.75 3.039,-6.787 6.789,-6.787 3.75,0 6.79,3.037 6.79,6.787"/>
        <path
                style="fill:none;stroke:#110f0d;stroke-width:2.5;stroke-miterlimit:10"
                inkscape:connector-curvature="0"
                id="path3966"
                stroke-miterlimit="10"
                d="m 276.727,138.171 c 0,3.75 -3.04,6.789 -6.79,6.789 -3.75,0 -6.789,-3.039 -6.789,-6.789 0,-3.75 3.039,-6.787 6.789,-6.787 3.75,0 6.79,3.037 6.79,6.787 z"/>
        <path
                style="fill:#ffffff"
                inkscape:connector-curvature="0"
                id="path3968"
                d="m 340.142,150.498 c 0,3.748 -3.043,6.787 -6.791,6.787 -3.749,0 -6.787,-3.04 -6.787,-6.787 0,-3.75 3.039,-6.789 6.787,-6.789 3.749,0 6.791,3.039 6.791,6.789"/>
        <path
                style="fill:none;stroke:#110f0d;stroke-width:2.5;stroke-miterlimit:10"
                inkscape:connector-curvature="0"
                id="path3970"
                stroke-miterlimit="10"
                d="m 340.142,150.498 c 0,3.748 -3.043,6.787 -6.791,6.787 -3.749,0 -6.787,-3.04 -6.787,-6.787 0,-3.75 3.039,-6.789 6.787,-6.789 3.749,0 6.791,3.039 6.791,6.789 z"/>
        <path
                style="fill:#ffffff"
                inkscape:connector-curvature="0"
                id="path3972"
                d="m 130.564,118.125 c 0,3.749 -3.04,6.787 -6.79,6.787 -3.75,0 -6.789,-3.039 -6.789,-6.787 0,-3.75 3.039,-6.787 6.789,-6.787 3.75,0 6.79,3.037 6.79,6.787"/>
        <path
                style="fill:none;stroke:#110f0d;stroke-width:2.5;stroke-miterlimit:10"
                inkscape:connector-curvature="0"
                id="path3974"
                stroke-miterlimit="10"
                d="m 130.564,118.125 c 0,3.749 -3.04,6.787 -6.79,6.787 -3.75,0 -6.789,-3.039 -6.789,-6.787 0,-3.75 3.039,-6.787 6.789,-6.787 3.75,0 6.79,3.037 6.79,6.787 z"/>
        <path
                style="fill:#ffffff"
                inkscape:connector-curvature="0"
                id="path3976"
                d="m 303.616,229.722 c 0,3.75 -3.043,6.79 -6.793,6.79 -3.749,0 -6.786,-3.04 -6.786,-6.79 0,-3.75 3.038,-6.787 6.786,-6.787 3.75,0 6.792,3.037 6.792,6.787"/>
        <path
                style="fill:none;stroke:#110f0d;stroke-width:2.5;stroke-miterlimit:10"
                inkscape:connector-curvature="0"
                id="path3978"
                stroke-miterlimit="10"
                d="m 303.616,229.722 c 0,3.75 -3.043,6.79 -6.793,6.79 -3.749,0 -6.786,-3.04 -6.786,-6.79 0,-3.75 3.038,-6.787 6.786,-6.787 3.75,0 6.792,3.037 6.792,6.787 z"/>
        <path
                style="fill:#ffffff"
                inkscape:connector-curvature="0"
                id="path3980"
                d="m 317.767,229.722 c 0,3.75 -3.039,6.79 -6.79,6.79 -3.748,0 -6.787,-3.04 -6.787,-6.79 0,-3.75 3.04,-6.787 6.787,-6.787 3.751,0 6.79,3.037 6.79,6.787"/>
        <path
                style="fill:none;stroke:#110f0d;stroke-width:2.5;stroke-miterlimit:10"
                inkscape:connector-curvature="0"
                id="path3982"
                stroke-miterlimit="10"
                d="m 317.767,229.722 c 0,3.75 -3.039,6.79 -6.79,6.79 -3.748,0 -6.787,-3.04 -6.787,-6.79 0,-3.75 3.04,-6.787 6.787,-6.787 3.751,0 6.79,3.037 6.79,6.787 z"/>
        <path
                style="fill:#110f0d;stroke:#ffffff;stroke-width:2.5;stroke-miterlimit:10"
                inkscape:connector-curvature="0"
                id="path3984"
                stroke-miterlimit="10"
                d="m 300.398,229.722 h 7.485"/>
        <path
                style="fill:#ffffff"
                inkscape:connector-curvature="0"
                id="path3986"
                d="m 55.449,280.405 c -2.651,2.651 -6.951,2.651 -9.603,0 -2.651,-2.649 -2.65,-6.951 0.001,-9.603 2.652,-2.651 6.95,-2.649 9.601,0 2.651,2.651 2.652,6.954 0,9.603"/>
        <path
                style="fill:none;stroke:#110f0d;stroke-width:2.5;stroke-miterlimit:10"
                inkscape:connector-curvature="0"
                id="path3988"
                stroke-miterlimit="10"
                d="m 55.449,280.405 c -2.651,2.651 -6.951,2.651 -9.603,0 -2.651,-2.649 -2.65,-6.951 0.001,-9.603 2.652,-2.651 6.95,-2.649 9.601,0 2.651,2.651 2.652,6.954 0,9.603 z"/>
        <path
                style="fill:#ffffff"
                inkscape:connector-curvature="0"
                id="path3990"
                d="m 65.457,290.413 c -2.649,2.651 -6.951,2.651 -9.601,0 -2.65,-2.651 -2.65,-6.951 10e-4,-9.6 2.651,-2.654 6.95,-2.654 9.6,0 2.651,2.649 2.652,6.949 0,9.6"/>
        <path
                style="fill:none;stroke:#110f0d;stroke-width:2.5;stroke-miterlimit:10"
                inkscape:connector-curvature="0"
                id="path3992"
                stroke-miterlimit="10"
                d="m 65.457,290.413 c -2.649,2.651 -6.951,2.651 -9.601,0 -2.65,-2.651 -2.65,-6.951 10e-4,-9.6 2.651,-2.654 6.95,-2.654 9.6,0 2.651,2.649 2.652,6.949 0,9.6 z"/>
        <path
                style="fill:#110f0d;stroke:#ffffff;stroke-width:2.5;stroke-miterlimit:10"
                inkscape:connector-curvature="0"
                id="path3994"
                stroke-miterlimit="10"
                d="m 53.174,278.132 5.294,5.293"/>
        <path
                style="fill:#ffffff"
                inkscape:connector-curvature="0"
                id="path3996"
                d="m 109.387,67.099 c -2.65,2.65 -6.951,2.65 -9.603,0 -2.65,-2.65 -2.649,-6.951 10e-4,-9.603 2.652,-2.651 6.95,-2.65 9.601,0 2.651,2.651 2.652,6.95 0,9.603"/>
        <path
                style="fill:none;stroke:#110f0d;stroke-width:2.5;stroke-miterlimit:10"
                inkscape:connector-curvature="0"
                id="path3998"
                stroke-miterlimit="10"
                d="m 109.387,67.099 c -2.65,2.65 -6.951,2.65 -9.603,0 -2.65,-2.65 -2.649,-6.951 10e-4,-9.603 2.652,-2.651 6.95,-2.65 9.601,0 2.651,2.651 2.652,6.95 0,9.603 z"/>
        <path
                style="fill:#ffffff"
                inkscape:connector-curvature="0"
                id="path4000"
                d="m 119.396,77.106 c -2.65,2.651 -6.951,2.651 -9.601,-10e-4 -2.651,-2.65 -2.651,-6.949 0,-9.6 2.651,-2.651 6.951,-2.651 9.6,0 2.651,2.651 2.654,6.95 0.001,9.601"/>
        <path
                style="fill:none;stroke:#110f0d;stroke-width:2.5;stroke-miterlimit:10"
                inkscape:connector-curvature="0"
                id="path4002"
                stroke-miterlimit="10"
                d="m 119.396,77.106 c -2.65,2.651 -6.951,2.651 -9.601,-10e-4 -2.651,-2.65 -2.651,-6.949 0,-9.6 2.651,-2.651 6.951,-2.651 9.6,0 2.651,2.651 2.654,6.95 0.001,9.601 z"/>
        <path
                style="fill:#110f0d;stroke:#ffffff;stroke-width:2.5;stroke-miterlimit:10"
                inkscape:connector-curvature="0"
                id="path4004"
                stroke-miterlimit="10"
                d="m 107.112,64.824 5.294,5.294"/>
        <path
                style="fill:#ffffff"
                inkscape:connector-curvature="0"
                id="path4006"
                d="m 89.911,338.516 c 0,3.748 -3.041,6.79 -6.791,6.79 -3.748,0 -6.787,-3.043 -6.787,-6.79 0,-3.75 3.04,-6.79 6.787,-6.79 3.75,0 6.791,3.04 6.791,6.79"/>
        <path
                style="fill:none;stroke:#110f0d;stroke-width:2.5;stroke-miterlimit:10"
                inkscape:connector-curvature="0"
                id="path4008"
                stroke-miterlimit="10"
                d="m 89.911,338.516 c 0,3.748 -3.041,6.79 -6.791,6.79 -3.748,0 -6.787,-3.043 -6.787,-6.79 0,-3.75 3.04,-6.79 6.787,-6.79 3.75,0 6.791,3.04 6.791,6.79 z"/>
        <path
                style="fill:#ffffff"
                inkscape:connector-curvature="0"
                id="path4010"
                d="m 104.065,338.516 c 0,3.748 -3.04,6.79 -6.79,6.79 -3.75,0 -6.789,-3.043 -6.789,-6.79 0,-3.75 3.039,-6.79 6.789,-6.79 3.75,0 6.79,3.04 6.79,6.79"/>
        <path
                style="fill:none;stroke:#110f0d;stroke-width:2.5;stroke-miterlimit:10"
                inkscape:connector-curvature="0"
                id="path4012"
                stroke-miterlimit="10"
                d="m 104.065,338.516 c 0,3.748 -3.04,6.79 -6.79,6.79 -3.75,0 -6.789,-3.043 -6.789,-6.79 0,-3.75 3.039,-6.79 6.789,-6.79 3.75,0 6.79,3.04 6.79,6.79 z"/>
        <path
                style="fill:#110f0d;stroke:#ffffff;stroke-width:2.5;stroke-miterlimit:10"
                inkscape:connector-curvature="0"
                id="path4014"
                stroke-miterlimit="10"
                d="m 86.693,338.516 h 7.486"/>
        <path
                style="fill:#ffffff"
                inkscape:connector-curvature="0"
                id="path4016"
                d="m 163.052,173.401 c 4.98,-12.226 16.766,-20.254 30.174,-20.254 13.408,0 25.194,8.027 30.175,20.254 h -60.349 z m 30.174,44.939 c -13.406,0 -25.194,-8.02 -30.174,-20.249 h 60.349 c -4.981,12.229 -16.768,20.249 -30.175,20.249 m 53.389,-44.939 c -5.701,-24.701 -27.881,-42.449 -53.389,-42.449 -25.505,0 -47.681,17.748 -53.384,42.449 h -13.801 v 24.69 h 13.801 c 5.703,24.7 27.879,42.446 53.384,42.446 25.508,0 47.688,-17.746 53.389,-42.446 h 13.8 v -24.69 h -13.8 z"/>
        <path
                style="fill:#274399"
                inkscape:connector-curvature="0"
                id="path4018"
                d="m 193.225,220.466 c -15.589,0 -28.811,-10.325 -33.184,-24.503 h 66.374 c -4.374,14.178 -17.596,24.503 -33.19,24.503 m 0,-69.44 c 15.594,0 28.816,10.325 33.19,24.5 h -66.376 c 4.375,-14.175 17.598,-24.5 33.186,-24.5 m 65.063,24.5 h -13.389 c -4.776,-24.169 -26.126,-42.45 -51.674,-42.45 -25.547,0 -46.898,18.281 -51.668,42.45 h -13.393 v 20.438 h 13.393 c 4.77,24.168 26.12,42.449 51.668,42.449 25.547,0 46.898,-18.281 51.674,-42.449 h 13.389 v -20.438 z"/>
        <path
                style="fill:#ee2829"
                inkscape:connector-curvature="0"
                id="path4020"
                d="m 193.225,151.027 c -19.144,0 -34.721,15.572 -34.721,34.718 0,19.146 15.578,34.722 34.721,34.722 19.149,0 34.725,-15.576 34.725,-34.722 0,-19.145 -15.576,-34.718 -34.725,-34.718 m 0,87.386 c -29.043,0 -52.672,-23.625 -52.672,-52.669 0,-29.039 23.63,-52.668 52.672,-52.668 29.046,0 52.676,23.629 52.676,52.668 0,29.044 -23.63,52.669 -52.676,52.669"/>
        <path
                style="fill:#ffffff"
                inkscape:connector-curvature="0"
                id="path4022"
                d="m 126.04,173.401 h 134.374 v 24.69 H 126.04 v -24.69 z"/>
        <path
                style="fill:#274399"
                inkscape:connector-curvature="0"
                id="path4024"
                d="M 258.288,195.964 H 128.165 v -20.438 h 130.123 v 20.438 z"/>
        <path
                style="fill:#ffffff"
                inkscape:connector-curvature="0"
                id="path4026"
                d="m 153.408,190.322 v -11.081 l -0.261,-0.264 h -1.869 l -0.26,0.264 v 13.041 l 0.26,0.264 h 7.741 l 0.261,-0.264 v -1.699 l -0.261,-0.261 h -5.611 z"/>
        <path
                style="fill:#ffffff"
                inkscape:connector-curvature="0"
                id="path4028"
                d="m 166.661,190.452 c -1.374,0 -2.529,-0.444 -3.438,-1.326 -0.919,-0.89 -1.366,-1.976 -1.366,-3.321 0,-1.37 0.459,-2.511 1.361,-3.389 0.907,-0.88 2.084,-1.326 3.5,-1.326 1.34,0 2.485,0.453 3.404,1.341 0.916,0.886 1.38,1.996 1.38,3.299 0,1.339 -0.464,2.474 -1.38,3.37 -0.919,0.899 -2.083,1.353 -3.461,1.353 m -0.019,-11.66 c -2.077,0 -3.82,0.669 -5.183,1.988 -1.365,1.321 -2.06,3.011 -2.06,5.025 0,1.963 0.69,3.62 2.045,4.926 1.354,1.304 3.069,1.965 5.095,1.965 2.12,0 3.899,-0.659 5.296,-1.96 1.404,-1.306 2.114,-2.976 2.114,-4.969 0,-1.989 -0.703,-3.666 -2.092,-4.989 -1.384,-1.317 -3.139,-1.986 -5.215,-1.986"/>
        <path
                style="fill:#ffffff"
                inkscape:connector-curvature="0"
                id="path4030"
                d="m 186.614,178.978 -0.261,0.263 v 9.429 l -8.338,-9.601 -0.198,-0.09 h -1.512 l -0.263,0.263 v 13.042 l 0.263,0.264 h 1.755 l 0.263,-0.264 v -9.345 l 8.263,9.519 0.198,0.09 h 1.606 l 0.261,-0.264 v -13.042 l -0.261,-0.263 h -1.775 z"/>
        <path
                style="fill:#ffffff"
                inkscape:connector-curvature="0"
                id="path4034"
                d="m 212.505,190.452 c -1.373,0 -2.529,-0.444 -3.438,-1.326 -0.919,-0.89 -1.366,-1.976 -1.366,-3.321 0,-1.37 0.458,-2.51 1.361,-3.389 0.906,-0.88 2.084,-1.326 3.499,-1.326 1.34,0 2.486,0.453 3.405,1.341 0.916,0.886 1.38,1.996 1.38,3.299 0,1.357 -0.453,2.461 -1.381,3.37 -0.931,0.91 -2.064,1.353 -3.46,1.353 m -0.02,-11.66 c -2.076,0 -3.819,0.669 -5.183,1.988 -1.365,1.321 -2.058,3.011 -2.058,5.025 0,1.963 0.688,3.623 2.044,4.926 1.354,1.304 3.068,1.965 5.095,1.965 2.12,0 3.9,-0.659 5.298,-1.96 1.401,-1.306 2.111,-2.976 2.111,-4.969 0,-1.989 -0.704,-3.668 -2.091,-4.989 -1.385,-1.317 -3.139,-1.986 -5.216,-1.986"/>
        <path
                style="fill:#ffffff"
                inkscape:connector-curvature="0"
                id="path4036"
                d="m 234.231,178.978 h -1.774 l -0.263,0.263 v 9.429 l -8.336,-9.601 -0.198,-0.09 h -1.512 l -0.263,0.263 v 13.042 l 0.263,0.264 h 1.755 l 0.261,-0.264 v -9.345 l 8.263,9.519 0.198,0.09 h 1.606 l 0.261,-0.264 v -13.042 l -0.261,-0.263 z"/>
        <path
                style="fill:#274399"
                inkscape:connector-curvature="0"
                id="path4038"
                d="m 120.544,310.458 c 0.226,0.348 0.326,0.659 0.453,1.315 0.881,-0.861 1.971,-1.315 3.157,-1.315 1.073,0 1.955,0.348 2.635,1.061 0.182,0.176 0.36,0.408 0.514,0.633 1.185,-1.214 2.245,-1.694 3.669,-1.694 1.011,0 1.974,0.304 2.56,0.809 0.731,0.631 0.964,1.394 0.964,3.164 v 9.213 h -3.292 v -8.554 c 0,-1.549 -0.181,-1.849 -1.065,-1.849 -0.634,0 -1.522,0.43 -2.252,1.09 v 9.313 h -3.21 v -8.431 c 0,-1.618 -0.235,-1.996 -1.177,-1.996 -0.627,0 -1.492,0.325 -2.223,0.985 v 9.443 h -3.313 v -9.038 c 0,-1.873 -0.13,-2.679 -0.485,-3.315 l 3.066,-0.832 z"/>
        <path
                style="fill:#274399"
                inkscape:connector-curvature="0"
                id="path4040"
                d="m 140.513,314.252 c -0.234,0.686 -0.355,1.595 -0.355,2.889 0,1.489 0.151,2.607 0.429,3.264 0.304,0.707 1.069,1.061 1.72,1.061 1.467,0 2.098,-1.314 2.098,-4.376 0,-1.749 -0.227,-2.889 -0.681,-3.471 -0.326,-0.428 -0.855,-0.683 -1.465,-0.683 -0.812,0 -1.47,0.506 -1.745,1.316 m 6.096,-1.871 c 1.036,1.214 1.498,2.63 1.498,4.731 0,2.226 -0.51,3.748 -1.627,5.012 -0.981,1.113 -2.275,1.795 -4.27,1.795 -3.522,0 -5.821,-2.631 -5.821,-6.704 0,-4.076 2.324,-6.787 5.821,-6.787 1.846,0 3.289,0.635 4.4,1.953"/>
        <path
                style="fill:#274399"
                inkscape:connector-curvature="0"
                id="path4042"
                d="m 159.017,310.684 v 2.33 l -5.726,8.274 h 5.947 l -0.81,2.355 h -9.539 v -2.099 l 6.092,-8.48 h -5.583 v -2.38 h 9.618 z"/>
        <path
                style="fill:#274399"
                inkscape:connector-curvature="0"
                id="path4044"
                d="m 164.352,310.38 v 13.262 h -3.391 v -12.73 l 3.391,-0.533 z m 0.398,-3.262 c 0,1.165 -0.926,2.095 -2.099,2.095 -1.133,0 -2.067,-0.93 -2.067,-2.095 0,-1.164 0.964,-2.103 2.125,-2.103 1.136,0 2.041,0.939 2.041,2.103"/>
        <path
                style="fill:#274399"
                inkscape:connector-curvature="0"
                id="path4046"
                d="m 170.527,308.283 v 10.096 c 0,2.229 0.026,2.531 0.23,2.884 0.13,0.231 0.404,0.355 0.685,0.355 0.124,0 0.195,0 0.38,-0.049 l 0.579,2.025 c -0.579,0.226 -1.289,0.351 -2.024,0.351 -1.445,0 -2.609,-0.681 -3.013,-1.767 -0.255,-0.659 -0.307,-1.065 -0.307,-2.913 v -9.67 c 0,-1.696 -0.046,-2.732 -0.173,-3.899 l 3.468,-0.785 c 0.123,0.709 0.175,1.545 0.175,3.371"/>
        <path
                style="fill:#274399"
                inkscape:connector-curvature="0"
                id="path4048"
                d="m 177.56,308.283 v 10.096 c 0,2.229 0.031,2.531 0.237,2.884 0.12,0.231 0.395,0.355 0.677,0.355 0.128,0 0.205,0 0.384,-0.049 l 0.579,2.025 c -0.579,0.226 -1.289,0.351 -2.025,0.351 -1.444,0 -2.61,-0.681 -3.014,-1.767 -0.259,-0.659 -0.302,-1.065 -0.302,-2.913 v -9.67 c 0,-1.696 -0.049,-2.732 -0.179,-3.899 l 3.461,-0.785 c 0.141,0.709 0.181,1.545 0.181,3.371"/>
        <path
                style="fill:#274399"
                inkscape:connector-curvature="0"
                id="path4050"
                d="m 187.277,317.974 c -2.344,0 -3.166,0.428 -3.166,1.978 0,1.009 0.64,1.693 1.501,1.693 0.63,0 1.268,-0.329 1.769,-0.884 l 0.054,-2.786 h -0.158 z m -4.395,-6.806 c 1.262,-0.535 2.344,-0.76 3.539,-0.76 2.18,0 3.671,0.806 4.183,2.252 0.167,0.531 0.247,0.934 0.229,2.327 l -0.08,4.351 v 0.229 c 0,1.393 0.229,1.926 1.22,2.656 l -1.8,2.08 c -0.791,-0.331 -1.499,-0.916 -1.827,-1.57 -0.248,0.255 -0.529,0.503 -0.785,0.683 -0.63,0.455 -1.547,0.709 -2.609,0.709 -2.886,0 -4.455,-1.471 -4.455,-4.048 0,-3.043 2.106,-4.461 6.228,-4.461 0.249,0 0.483,0 0.762,0.03 v -0.529 c 0,-1.446 -0.28,-1.926 -1.527,-1.926 -1.074,0 -2.351,0.529 -3.739,1.466 l -1.446,-2.43 c 0.689,-0.431 1.195,-0.684 2.109,-1.06"/>
        <path
                style="fill:#274399"
                inkscape:connector-curvature="0"
                id="path4052"
                d="m 205.979,310.784 -0.792,1.585 c -1.201,-0.573 -2.21,-0.985 -3.413,-0.985 -1.558,0 -2.569,0.902 -2.569,2.241 0,1.039 0.52,1.665 1.966,1.966 l 1.805,0.381 c 2.456,0.519 3.63,1.776 3.63,3.796 0,2.649 -2.076,4.451 -5.134,4.451 -1.72,0 -3.605,-0.52 -4.999,-1.366 l 0.821,-1.583 c 1.393,0.846 2.814,1.284 4.314,1.284 1.665,0 2.76,-0.904 2.76,-2.35 0,-1.228 -0.684,-1.911 -2.241,-2.239 l -1.693,-0.356 c -2.24,-0.463 -3.441,-1.855 -3.441,-3.74 0,-2.458 1.994,-4.178 4.834,-4.178 1.42,0 3.004,0.438 4.151,1.091"/>
        <path
                style="fill:#274399"
                inkscape:connector-curvature="0"
                id="path4054"
                d="m 210.895,320.616 c 1.01,1.146 2.184,1.774 3.33,1.774 1.258,0 2.404,-0.683 2.868,-1.695 0.41,-0.874 0.574,-1.91 0.574,-3.439 0,-1.639 -0.244,-3.086 -0.629,-3.905 -0.436,-0.929 -1.42,-1.503 -2.511,-1.503 -1.365,0 -2.595,0.656 -3.631,1.913 v 6.855 z m -2.431,-10.379 2.185,-0.381 c 0,0 0.136,0.573 0.136,2.075 1.12,-1.311 2.512,-1.995 4.014,-1.995 1.393,0 2.759,0.601 3.631,1.695 1.011,1.255 1.503,2.921 1.503,5.353 0,2.184 -0.326,3.44 -1.093,4.698 -0.982,1.583 -2.43,2.484 -4.205,2.484 -1.391,0 -2.784,-0.602 -3.74,-1.584 v 6.499 l -2.13,0.41 V 313.16 c 0,-2.074 -0.301,-2.921 -0.301,-2.921"/>
        <path
                style="fill:#274399"
                inkscape:connector-curvature="0"
                id="path4056"
                d="m 229.436,316.901 c -0.355,-0.026 -0.684,-0.055 -1.066,-0.055 -3.439,0 -4.668,1.175 -4.668,3.252 0,1.61 0.791,2.484 2.347,2.484 1.391,0 2.676,-0.848 3.305,-2.13 l 0.081,-3.551 z m -7.619,-5.216 c 1.802,-1.2 3.741,-1.829 5.707,-1.829 1.885,0 3.194,0.737 3.766,2.13 0.302,0.737 0.329,1.775 0.302,3.004 l -0.109,4.479 c -0.055,2.212 0.083,2.785 1.091,3.333 l -1.091,1.528 c -0.929,-0.299 -1.611,-1.037 -1.859,-1.993 -1.31,1.31 -2.374,1.83 -3.931,1.83 -3.359,0 -4.37,-2.047 -4.37,-3.877 0,-3.086 2.65,-4.888 7.21,-4.888 0.573,0 0.956,0.025 0.956,0.025 v -0.955 c 0,-1.2 -0.055,-1.693 -0.438,-2.129 -0.436,-0.493 -0.983,-0.737 -1.83,-0.737 -1.529,0 -3.469,0.819 -4.341,1.61 l -1.065,-1.53 z"/>
        <path
                style="fill:#274399"
                inkscape:connector-curvature="0"
                id="path4058"
                d="m 243.335,311.331 -1.172,1.475 c -0.958,-0.791 -1.558,-1.093 -2.595,-1.093 -1.065,0 -2.076,0.601 -2.566,1.529 -0.519,0.956 -0.766,2.456 -0.766,4.451 0,3.059 1.175,4.724 3.359,4.724 1.094,0 2.131,-0.519 2.924,-1.475 l 1.174,1.366 c -1.256,1.285 -2.459,1.804 -4.151,1.804 -1.938,0 -3.386,-0.684 -4.343,-2.049 -0.899,-1.311 -1.311,-2.814 -1.311,-4.833 0,-2.979 0.875,-4.616 2.049,-5.79 1.066,-1.066 2.24,-1.585 3.688,-1.585 1.72,0 2.731,0.656 3.712,1.475"/>
        <path
                style="fill:#274399"
                inkscape:connector-curvature="0"
                id="path4060"
                d="m 246.94,315.754 h 6.225 c -0.025,-1.475 -0.216,-2.375 -0.626,-3.031 -0.465,-0.738 -1.42,-1.201 -2.458,-1.201 -1.939,0 -3.03,1.42 -3.141,4.232 m 7.346,5.299 0.82,1.364 c -1.203,1.092 -2.84,1.695 -4.59,1.695 -3.766,0 -6.034,-2.732 -6.034,-7.237 0,-2.292 0.493,-3.769 1.639,-5.135 1.091,-1.282 2.431,-1.884 4.069,-1.884 1.475,0 2.759,0.519 3.688,1.475 1.174,1.201 1.501,2.485 1.555,5.735 v 0.3 h -8.492 v 0.328 c 0,1.284 0.165,2.266 0.63,2.978 0.762,1.174 2.02,1.665 3.386,1.665 1.31,0 2.374,-0.409 3.33,-1.282"/>
        <path
                style="fill:#274399"
                inkscape:connector-curvature="0"
                id="path4062"
                d="m 266.139,310.784 -0.794,1.585 c -1.201,-0.573 -2.212,-0.985 -3.413,-0.985 -1.556,0 -2.567,0.902 -2.567,2.241 0,1.039 0.519,1.665 1.966,1.966 l 1.801,0.381 c 2.459,0.519 3.634,1.776 3.634,3.796 0,2.649 -2.076,4.451 -5.134,4.451 -1.72,0 -3.605,-0.52 -4.999,-1.366 l 0.821,-1.583 c 1.391,0.846 2.813,1.284 4.314,1.284 1.665,0 2.756,-0.904 2.756,-2.35 0,-1.228 -0.68,-1.911 -2.237,-2.239 l -1.695,-0.356 c -2.237,-0.463 -3.439,-1.855 -3.439,-3.74 0,-2.458 1.994,-4.178 4.834,-4.178 1.42,0 3.004,0.438 4.151,1.091"/>
        <text
                transform="matrix(1.25 0 0 1.25 16.25 -12.013)"
                clip-path="url(#d)"
                id="text4064">
            <tspan
                    x="0 4.473 9.3149996 11.466 18.702 20.610001 25.974001 27.882 32.499001 34.407001 36.513 41.507999 43.416 47.583 49.491001 54.108002 56.015999 58.122002 63.117001"
                    y="0"
                    style="-inkscape-font-specification:MyriadPro-Regular"
                    font-size="9"
                    fill="#ec008c"
                    font-family="Myriad Pro"
                    id="tspan4066">TRIM = 4 in x 4 in
            </tspan>
        </text>
        <path
                id="path474"
                style="fill:#ffffff;fill-opacity:1;fill-rule:nonzero;stroke:none"
                d="m 195.87,190.342 -2.1275,0 0,-9.1775 2.07,0 c 0.87625,0 1.51875,0.0337 1.90875,0.0975 0.37875,0.065 0.7875,0.2 1.21625,0.4 0.425,0.19875 0.80625,0.4575 1.13125,0.7675 0.9,0.84 1.33875,1.8975 1.33875,3.235 0,1.34625 -0.44125,2.475 -1.305,3.35125 -0.26875,0.27125 -0.57,0.50125 -0.89375,0.68375 -0.3225,0.18125 -0.735,0.3375 -1.22625,0.46 -0.495,0.11875 -1.205,0.1825 -2.1125,0.1825 m 4.47125,-10.535 c -1.06625,-0.55 -2.52375,-0.82875 -4.3325,-0.82875 l -4.3975,0 -0.26125,0.2625 0,13.025 0.26125,0.26125 4.12875,0 c 1.18625,0 1.97,-0.0337 2.39375,-0.1025 0.425,-0.0687 0.9,-0.2025 1.405,-0.4 0.86875,-0.3275 1.645,-0.8225 2.3025,-1.465 0.64625,-0.6275 1.14875,-1.365 1.4975,-2.1875 0.3475,-0.825 0.52375,-1.7025 0.52375,-2.605 0,-1.26375 -0.32,-2.445 -0.95125,-3.5125 -0.63125,-1.0725 -1.49625,-1.895 -2.57,-2.4475"
                inkscape:connector-curvature="0"/>
    </g>
</svg>
