<?xml version="1.0" encoding="UTF-8" standalone="no"?>
<!-- Created with clker.com Auto tracing tool http://www.clker.com) -->

<svg
   xmlns:dc="http://purl.org/dc/elements/1.1/"
   xmlns:cc="http://creativecommons.org/ns#"
   xmlns:rdf="http://www.w3.org/1999/02/22-rdf-syntax-ns#"
   xmlns:svg="http://www.w3.org/2000/svg"
   xmlns="http://www.w3.org/2000/svg"
   xmlns:sodipodi="http://sodipodi.sourceforge.net/DTD/sodipodi-0.dtd"
   xmlns:inkscape="http://www.inkscape.org/namespaces/inkscape"
   width="30"
   height="30"
   id="svg2"
   version="1.1"
   inkscape:version="0.48.4 r9939"
   sodipodi:docname="yellow-warning-sign.svg">
  <metadata
     id="metadata28">
    <rdf:RDF>
      <cc:Work
         rdf:about="">
        <dc:format>image/svg+xml</dc:format>
        <dc:type
           rdf:resource="http://purl.org/dc/dcmitype/StillImage" />
      </cc:Work>
    </rdf:RDF>
  </metadata>
  <defs
     id="defs26" />
  <sodipodi:namedview
     pagecolor="#ffffff"
     bordercolor="#666666"
     borderopacity="1"
     objecttolerance="10"
     gridtolerance="10"
     guidetolerance="10"
     inkscape:pageopacity="0"
     inkscape:pageshadow="2"
     inkscape:window-width="1119"
     inkscape:window-height="1896"
     id="namedview24"
     showgrid="false"
     inkscape:zoom="30.233333"
     inkscape:cx="15"
     inkscape:cy="15"
     inkscape:window-x="81"
     inkscape:window-y="24"
     inkscape:window-maximized="1"
     inkscape:current-layer="svg2" />
  <path
     style="font-size:medium;font-style:normal;font-variant:normal;font-weight:normal;font-stretch:normal;text-indent:0;text-align:start;text-decoration:none;line-height:normal;letter-spacing:normal;word-spacing:normal;text-transform:none;direction:ltr;block-progression:tb;writing-mode:lr-tb;text-anchor:start;baseline-shift:baseline;color:#000000;fill:#d08202;fill-opacity:1;fill-rule:evenodd;stroke:none;stroke-width:50;marker:none;visibility:visible;display:inline;overflow:visible;enable-background:accumulate;font-family:Sans;-inkscape-font-specification:Sans"
     d="M 14.842859,0.00499416 C 12.581323,0.16529055 11.09763,2.2483309 10.231216,4.1420964 7.0225409,10.555098 3.6698126,16.899257 0.53246992,23.345543 c -0.92124189,1.966776 -0.76024423,4.850839 1.28307678,6.033931 1.5008462,0.953769 3.3409438,0.479854 5.011875,0.613281 6.6831323,-0.0086 13.3686833,0.05865 20.0500433,-0.112959 2.015617,-0.321685 3.364048,-2.401033 3.093134,-4.380765 -0.11968,-2.240302 -1.596186,-4.070783 -2.462862,-6.062174 C 24.694769,13.865023 21.834751,8.3158079 19.040424,2.7353043 18.107923,1.3319127 16.686498,-0.10390671 14.842859,0.00499416 z"
     id="path3808"
     inkscape:connector-curvature="0" />
  <path
     style="font-size:medium;font-style:normal;font-variant:normal;font-weight:normal;font-stretch:normal;text-indent:0;text-align:start;text-decoration:none;line-height:normal;letter-spacing:normal;word-spacing:normal;text-transform:none;direction:ltr;block-progression:tb;writing-mode:lr-tb;text-anchor:start;baseline-shift:baseline;color:#000000;fill:#ffff00;fill-opacity:1;fill-rule:evenodd;stroke:none;stroke-width:50;marker:none;visibility:visible;display:inline;overflow:visible;enable-background:accumulate;font-family:Sans;-inkscape-font-specification:Sans"
     d="m 14.92517,1.9757047 c 1.240483,-0.025924 2.088249,1.0671177 2.683289,2.0126522 0.218297,0.3056074 0.798343,1.6358102 1.224119,2.3999299 3.012489,5.9488682 6.066592,11.8779922 9.040461,17.8455252 0.446111,1.091092 0.613705,2.746258 -0.583699,3.417809 -1.208467,0.54867 -2.623156,0.212513 -3.923406,0.331024 -6.643803,0.02967 -13.29041,0.103673 -19.9328784,-0.01527 C 2.5193001,27.750684 1.8761564,27.144944 1.8005331,26.169106 1.6794484,24.338422 2.9267517,22.818184 3.6125177,21.215036 6.5108612,15.497057 9.431084,9.789943 12.322386,4.0685362 12.840593,3.2960325 13.718111,2.0293459 14.92517,1.9757047 z"
     id="path3804"
     inkscape:connector-curvature="0" />
  <path
     style="font-size:medium;font-style:normal;font-variant:normal;font-weight:normal;font-stretch:normal;text-indent:0;text-align:start;text-decoration:none;line-height:normal;letter-spacing:normal;word-spacing:normal;text-transform:none;direction:ltr;block-progression:tb;writing-mode:lr-tb;text-anchor:start;baseline-shift:baseline;color:#000000;fill:#d08202;fill-opacity:1;fill-rule:evenodd;stroke:none;stroke-width:50;marker:none;visibility:visible;display:inline;overflow:visible;enable-background:accumulate;font-family:Sans;-inkscape-font-specification:Sans"
     d="m 14.98994,27.680035 c 0.0066,0.0084 0.01302,0.02041 0.02012,0.03083 -0.0069,-0.01126 -0.01327,-0.02074 -0.02012,-0.03083 z"
     id="path3784"
     inkscape:connector-curvature="0" />
  <path
     style="font-size:medium;font-style:normal;font-variant:normal;font-weight:normal;font-stretch:normal;text-indent:0;text-align:start;text-decoration:none;line-height:normal;letter-spacing:normal;word-spacing:normal;text-transform:none;direction:ltr;block-progression:tb;writing-mode:lr-tb;text-anchor:start;baseline-shift:baseline;color:#000000;fill:#d08202;fill-opacity:1;fill-rule:evenodd;stroke:none;stroke-width:50;marker:none;visibility:visible;display:inline;overflow:visible;enable-background:accumulate;font-family:Sans;-inkscape-font-specification:Sans"
     d="m 14.96031,27.750329 c 0.02452,0.04234 0.05121,0.09771 0.07938,0.173886 -0.0266,-0.06992 -0.05306,-0.125919 -0.07938,-0.173886 z"
     id="path3007"
     inkscape:connector-curvature="0" />
  <path
     style="fill:#000000;fill-rule:evenodd;stroke:#000000;stroke-width:0.01878744px;stroke-linecap:butt;stroke-linejoin:miter;stroke-opacity:1"
     d="m 13.77644,13.63844 -0.171727,-4.8342836 1.395287,0 1.395287,0 -0.171727,5.0513336 q -0.16815,5.051333 -0.178883,5.228919 l -0.0072,0.177585 -1.037521,0 -1.037521,0 -0.0072,-0.394635 Q 13.94459,18.472724 13.77644,13.63844 z"
     id="path6"
     inkscape:connector-curvature="0" />
  <path
     style="font-size:medium;font-style:normal;font-variant:normal;font-weight:normal;font-stretch:normal;text-indent:0;text-align:start;text-decoration:none;line-height:normal;letter-spacing:normal;word-spacing:normal;text-transform:none;direction:ltr;block-progression:tb;writing-mode:lr-tb;text-anchor:start;baseline-shift:baseline;color:#000000;fill:#000000;fill-opacity:1;fill-rule:nonzero;stroke:none;stroke-width:1;marker:none;visibility:visible;display:inline;overflow:visible;enable-background:accumulate;font-family:Sans;-inkscape-font-specification:Sans"
     d="m 14.989282,20.631937 c -0.990595,0 -1.78125,0.821905 -1.78125,1.8125 0,0.990595 0.790655,1.78125 1.78125,1.78125 0.990595,0 1.8125,-0.790655 1.8125,-1.78125 0,-0.990595 -0.821905,-1.8125 -1.8125,-1.8125 z"
     id="path3871" />
</svg>
